<svg width="85" height="38" viewBox="0 0 85 38" xmlns="http://www.w3.org/2000/svg"><title>CB10293F-AFDD-4C7F-AE8D-8DB074CC0AE3</title><g fill="#4D6272" fill-rule="evenodd"><path d="M14.988 31.068c-1.893 4.87-4.012 6.675-7.845 6.675-2.3 0-3.968-.542-5.634-1.447L3.36 32.24c.99.543 2.068.901 3.196.901 1.536 0 2.479-.676 3.382-2.745L.02 6.586h5.815l6.769 17.673 6.17-17.673h5.687l-9.472 24.482zM36.539 26.472c2.657 0 4.556-.994 6.451-2.841l3.197 2.84c-2.252 2.705-5.367 4.465-9.739 4.465-6.899 0-12.218-5.01-12.218-12.403 0-6.854 4.82-12.444 11.632-12.444 7.577 0 11.41 5.953 11.41 12.852 0 .495-.047.944-.097 1.485H29.689c.626 3.878 3.33 6.046 6.85 6.046zm5.32-9.65c-.362-3.516-2.435-6.267-6.045-6.267-3.338 0-5.68 2.57-6.174 6.266H41.86zM78.437 22.953c0 2.12 1.084 2.973 2.932 2.973a7.317 7.317 0 0 0 3.38-.81v4.463c-1.353.767-2.887 1.22-4.917 1.22-4.01 0-6.847-1.761-6.847-6.99V.049h5.452v6.538h6.403v4.69h-6.403v11.677z"/><path d="M61.719 18.49L53.037 6.585h-5.95l8.677 11.903-8.676 11.906h5.95zM61.449 14.407l1.625 2.23L70.4 6.586h-5.95l-4.351 5.968zM63.074 20.343l-1.625 2.232-1.35 1.848 4.35 5.972H70.4z"/></g></svg>